<svg xmlns="http://www.w3.org/2000/svg" viewBox="0 0 365 310" role="img" aria-labelledby="title"><title id="title">DB Logical Solutions</title><rect width="365" height="310" fill="#020817"/><g transform="translate(22 28)"><path d="M0 0h86c55 0 88 31 88 78s-33 78-88 78H0z" fill="#fff"/><path d="M30 30v96h47c31 0 49-18 49-48S108 30 77 30z" fill="#020817"/><path d="M92 0h80c37 0 60 18 60 46 0 18-10 32-27 39 23 7 35 24 35 47 0 34-27 54-70 54H92l35-31h43c15 0 23-7 23-20 0-12-8-19-23-19h-50V83h45c14 0 22-7 22-18 0-11-8-18-22-18h-73z" fill="#1677ff"/><text x="8" y="224" fill="#fff" font-family="Arial, Helvetica, sans-serif" font-size="34" font-weight="700" letter-spacing="3">DB LOGICAL</text><line x1="0" y1="253" x2="52" y2="253" stroke="#1677ff" stroke-width="4"/><text x="66" y="262" fill="#1677ff" font-family="Arial, Helvetica, sans-serif" font-size="24" font-weight="700" letter-spacing="5">SOLUTIONS</text><line x1="260" y1="253" x2="320" y2="253" stroke="#1677ff" stroke-width="4"/></g></svg>